<svg width="79" height="71" viewBox="0 0 79 71" fill="none" xmlns="http://www.w3.org/2000/svg">
<path d="M22.4597 21.9877H21.5061L39.0122 39.5583L53.3888 25.1288H57.8142L39.0122 44L17.8631 22.7975C17.2926 22.2249 16.7873 21.6074 16.3472 20.9448C15.9071 20.2822 15.524 19.5828 15.198 18.8466H21.1394L28.0587 11.9264L39.0122 22.8957L46.8362 15.0675L50.6259 18.8466H59.3056C59.8272 18.0123 60.2266 17.1288 60.5037 16.1963C60.7808 15.2638 60.9193 14.3067 60.9193 13.3252C60.9193 11.9018 60.6544 10.5767 60.1247 9.34969C59.5949 8.1227 58.8696 7.05521 57.9487 6.14724C57.0277 5.23926 55.9519 4.52761 54.7213 4.01227C53.4906 3.49693 52.1663 3.23926 50.7482 3.23926C49.379 3.23926 48.1646 3.45603 47.1051 3.88957C46.0456 4.32311 45.0676 4.89162 44.1711 5.59509C43.2747 6.29857 42.4148 7.09611 41.5917 7.98773C40.7685 8.87934 39.9087 9.78323 39.0122 10.6994C38.132 9.81595 37.2763 8.92434 36.445 8.02454C35.6137 7.12474 34.7457 6.31493 33.8411 5.59509C32.9364 4.87526 31.9503 4.2863 30.8826 3.82822C29.815 3.37014 28.6129 3.1411 27.2763 3.1411C25.8745 3.1411 24.5583 3.40695 23.3276 3.93865C22.097 4.47035 21.0212 5.19836 20.1002 6.1227C19.1793 7.04703 18.454 8.12679 17.9242 9.36196C17.3945 10.5971 17.1296 11.9182 17.1296 13.3252C17.1296 14.0941 17.2192 14.8875 17.3985 15.7055H14.1956C14.1141 15.3129 14.0611 14.9202 14.0367 14.5276C14.0122 14.135 14 13.7423 14 13.3497C14 11.501 14.3464 9.76687 15.0391 8.14724C15.7319 6.52761 16.6773 5.11247 17.8753 3.90184C19.0733 2.69121 20.4792 1.73824 22.0929 1.04294C23.7066 0.347648 25.4344 0 27.2763 0C28.6292 0 29.8354 0.155419 30.8949 0.466258C31.9544 0.777096 32.9364 1.20654 33.8411 1.7546C34.7457 2.30266 35.6096 2.96115 36.4328 3.73006C37.2559 4.49898 38.1157 5.34151 39.0122 6.25767C39.9087 5.34151 40.7685 4.49898 41.5917 3.73006C42.4148 2.96115 43.2787 2.30266 44.1834 1.7546C45.088 1.20654 46.0701 0.777096 47.1296 0.466258C48.1891 0.155419 49.3953 0 50.7482 0C52.5738 0 54.2934 0.347648 55.9071 1.04294C57.5208 1.73824 58.9267 2.68303 60.1247 3.8773C61.3227 5.07157 62.2681 6.47853 62.9609 8.09816C63.6536 9.71779 64 11.4438 64 13.2761C64 14.863 63.7229 16.4049 63.1687 17.9018C62.6145 19.3988 61.824 20.7607 60.7971 21.9877H49.3056L46.8362 19.4847L39.0122 27.362L28.0587 16.3436L22.4597 21.9877Z" fill="#159EEC"/>
<path d="M10.1176 56.44H8.90156V63.896L8.96556 65.592H8.94956L7.81356 63.48L3.41356 56.44H1.82956V67H3.04556V59.544L2.98156 57.848H2.99756L4.11756 59.928L8.53356 67H10.1176V56.44ZM20.0629 62.584C20.0629 60.52 18.7989 58.84 16.4789 58.84C14.0629 58.84 12.7029 60.408 12.7029 63C12.7029 65.592 14.1589 67.16 16.5749 67.16C18.3029 67.16 19.2949 66.504 19.9029 65.416L18.8309 64.856C18.5429 65.624 17.7429 66.04 16.5749 66.04C15.1029 66.04 14.1269 65.096 13.9669 63.48H19.9989C20.0309 63.256 20.0629 62.952 20.0629 62.584ZM16.4789 59.96C17.8389 59.96 18.6549 60.872 18.8309 62.344H13.9829C14.1749 60.84 15.0549 59.96 16.4789 59.96ZM28.1438 59V63.352C28.1438 65.24 26.9438 66.04 25.5838 66.04C24.4318 66.04 23.6958 65.544 23.6958 63.896V59H22.4158V64.232C22.4158 66.344 23.7758 67.16 25.3598 67.16C26.6398 67.16 27.6638 66.744 28.2238 65.784L28.3038 67H29.4238V59H28.1438ZM36.1781 58.84C34.9301 58.84 34.0661 59.336 33.6181 60.312L33.4421 59H32.4021V67H33.6821V62.68C33.6821 60.888 34.8341 60.04 35.7941 60.04C36.2101 60.04 36.5621 60.12 36.8021 60.248L37.0581 59C36.8181 58.872 36.4501 58.84 36.1781 58.84ZM42.0593 58.84C39.6433 58.84 38.1873 60.408 38.1873 63C38.1873 65.592 39.6433 67.16 42.0593 67.16C44.4753 67.16 45.9313 65.592 45.9313 63C45.9313 60.408 44.4753 58.84 42.0593 58.84ZM42.0593 59.944C43.6753 59.944 44.6513 61.096 44.6513 63C44.6513 64.904 43.6753 66.056 42.0593 66.056C40.4433 66.056 39.4673 64.904 39.4673 63C39.4673 61.096 40.4433 59.944 42.0593 59.944ZM49.6337 55.32H48.3537V65.016C48.3537 66.472 48.9777 67.16 50.2737 67.16C50.6897 67.16 51.1217 67.08 51.4577 66.936L51.6657 65.704C51.2017 65.88 50.9297 65.928 50.4977 65.928C49.8417 65.928 49.6337 65.672 49.6337 64.856V55.32ZM56.6843 58.84C54.2683 58.84 52.8123 60.408 52.8123 63C52.8123 65.592 54.2683 67.16 56.6843 67.16C59.1003 67.16 60.5563 65.592 60.5563 63C60.5563 60.408 59.1003 58.84 56.6843 58.84ZM56.6843 59.944C58.3003 59.944 59.2763 61.096 59.2763 63C59.2763 64.904 58.3003 66.056 56.6843 66.056C55.0683 66.056 54.0923 64.904 54.0923 63C54.0923 61.096 55.0683 59.944 56.6843 59.944ZM67.5067 65.976H64.8507C64.2267 65.976 63.7947 65.672 63.7947 65.112C63.7947 64.568 64.0507 64.248 64.6907 64.104C65.0427 64.2 65.4587 64.248 65.9227 64.248C67.8427 64.248 69.2027 63.128 69.2027 61.544C69.2027 60.712 68.8347 60.008 68.1947 59.528C68.4187 58.952 69.0267 58.648 70.0987 58.648L69.8107 57.528C68.6107 57.528 67.8587 58.056 67.5547 59.16C67.0747 58.952 66.5307 58.84 65.9227 58.84C64.0027 58.84 62.6427 59.96 62.6427 61.544C62.6427 62.472 63.0427 63.256 63.8107 63.736C63.1067 63.976 62.6107 64.472 62.6107 65.304C62.6107 66.008 63.0907 66.488 63.6987 66.776C62.8187 67.016 62.2907 67.592 62.2907 68.328C62.2907 69.528 63.4427 70.44 65.9707 70.44C68.1307 70.44 69.9227 69.464 69.9227 67.88C69.9227 66.728 69.0267 65.976 67.5067 65.976ZM65.9227 59.88C67.0267 59.88 67.8747 60.552 67.8747 61.544C67.8747 62.536 67.0267 63.208 65.9227 63.208C64.8187 63.208 63.9707 62.536 63.9707 61.544C63.9707 60.552 64.8187 59.88 65.9227 59.88ZM66.1147 69.368C64.3547 69.368 63.4747 68.856 63.4747 68.072C63.4747 67.464 64.0027 67.08 65.0107 67.08H67.1547C68.3547 67.08 68.7387 67.448 68.7387 68.024C68.7387 68.728 67.8107 69.368 66.1147 69.368ZM78.6239 59H77.2479L75.3759 64.056L74.7999 65.64L74.3039 64.216L72.3039 59H70.8479L74.1919 66.984L73.7759 68.024C73.3759 69.08 72.8799 69.32 72.3199 69.32C71.8719 69.32 71.3919 69.192 71.0239 68.68L70.5759 69.768C71.0239 70.248 71.5359 70.44 72.3359 70.44C73.5199 70.44 74.2399 69.912 74.8639 68.344L78.6239 59Z" fill="#212124"/>
</svg>
